<svg xmlns="http://www.w3.org/2000/svg" xmlns:xlink="http://www.w3.org/1999/xlink" id="Ebene_1" x="0px" y="0px" viewBox="0 0 500 400" style="enable-background:new 0 0 500 400;" xml:space="preserve">
<style type="text/css">
	.st0{fill:#FFFFFF;}
</style>
<g>
	<circle class="st0" cx="258.4" cy="92.5" r="59.6"></circle>
	<path class="st0" d="M258.4,12.5c44.1,0,80,35.9,80,80s-35.9,80-80,80s-80-35.9-80-80S214.3,12.5,258.4,12.5 M258.4,3.1   c-49.4,0-89.4,40-89.4,89.4s40,89.4,89.4,89.4s89.4-40,89.4-89.4S307.7,3.1,258.4,3.1L258.4,3.1z"></path>
	<polygon class="st0" points="2.5,289.8 2.5,303.5 16.5,299.8 16.5,348.3 30.5,344.6 30.5,296 45,292.2 45,278.4  "></polygon>
	<polygon class="st0" points="54.9,338.1 54.9,275.8 94.3,265.2 94.3,278.8 68.8,285.6 68.8,295.6 90.4,289.8 90.4,302.6    68.8,308.3 68.8,320.7 94.3,313.9 94.3,327.5  "></polygon>
	<path class="st0" d="M110.6,315.4c-4.6-4.5-7-11.6-7-21.4c0-10,2.4-18.4,7.2-25.4c4.8-7,11.4-11.7,19.7-13.9   c7.2-1.9,13.1-1.4,17.7,1.7c4.6,2.9,7.2,8,7.6,15l-14.6,3.9c-0.9-5.6-5-8.2-11.2-6.6c-7,1.9-11.6,8-11.6,16.2v10.4   c0,7.6,4.4,11.5,11.6,9.6c5.8-1.5,10.1-6.3,11.2-12.7l14.6-3.9c-0.7,7.4-3.4,13.8-8.1,19.3c-4.7,5.5-10.6,9.2-17.8,11.1   C121.7,321,115.3,319.9,110.6,315.4"></path>
	<polygon class="st0" points="167.6,307.8 167.6,245.5 181.6,241.8 181.6,266.2 204,260.2 204,235.8 217.9,232.1 217.9,294.4    204,298.1 204,272.7 181.6,278.7 181.6,304.1  "></polygon>
	<path class="st0" d="M153.9,375.6c0.2,4.8,3.8,6.8,9.4,5.3c4.9-1.3,7.7-4.3,7.7-8c0-1.7-0.8-2.9-1.5-3.4c-0.3-0.3-0.8-0.5-1.7-0.5   c-1.5-0.3-1.5-0.2-3.1-0.1l-8,0.3c-1.1,0-1.9,0-2.5,0.1c-1.1,0-4.3-0.3-6.1-0.9c-1.6-0.6-4.2-2-5.5-3.7c-1.2-2-2.3-5-2.3-8.9   c0-6.1,1.9-11.5,5.9-16.1c4-4.7,9.3-8,15.9-9.7c6.4-1.7,11.7-1.4,15.7,0.9c4,2.3,6.1,6.3,6.2,11.9l-14.5,3.9   c-0.3-4-3.4-5.4-7.8-4.2c-4.3,1.1-6.6,3.8-6.6,7c0,2,1,2.5,1.9,3.3c0.6,0.3,2.1,0.4,2.5,0.4c0.5-0.1,2.3,0,2.5-0.1l8.5-0.4   c10.2-0.4,15.3,4.3,15.3,14.3c0,6.5-2.1,12.1-6.3,16.9c-4.1,4.8-9.7,8.1-16.7,9.9c-7.1,1.9-12.8,1.6-17.1-1.1   c-4.3-2.7-6.4-7.1-6.4-13.2L153.9,375.6z"></path>
	<polygon class="st0" points="232.5,311.9 232.5,325.6 218.1,329.5 218.1,378 204.1,381.8 204.1,333.2 190,337 190,323.2  "></polygon>
	<path class="st0" d="M251.9,347.4l12.9-3.5l-1.6-5.4l-4.3-16.9l-0.5,0.1l-4.7,19.3L251.9,347.4z M270.8,363.9l-2.6-8.7l-19.7,5.3   l-2.7,10.1l-14.5,3.9l18.8-67.3l16.3-4.4l19.7,57L270.8,363.9z"></path>
	<path class="st0" d="M308.1,320.1l10.9-2.9c3.9-1,5.9-3.8,5.9-7.3v-3.4c0-3.8-1.9-5.2-5.9-4.1l-10.9,2.9V320.1z M294.1,357.7v-62.3   l28.9-7.7c10.9-2.9,16.9,2.7,16.9,13.7c0,7.5-3.3,13.9-8.7,17.4v0.7l1.8-0.5c4.6-1.2,6.9,1.1,6.9,6.9v19.7l-14.3,3.8V328l-17.5,4.7   v21.3L294.1,357.7z"></path>
	<polygon class="st0" points="389.4,269.8 389.4,283.6 375,287.5 375,336 361,339.8 361,291.2 347,295 347,281.2  "></polygon>
	<polygon class="st0" points="399.3,329.5 399.3,267.2 438.8,256.6 438.8,270.2 413.3,277 413.3,287 434.9,281.2 434.9,294    413.3,299.8 413.3,312.1 438.8,305.3 438.8,318.9  "></polygon>
	<path class="st0" d="M465.7,277.8l10.9-2.9c3.9-1,5.9-3.8,5.9-7.3v-3.4c0-3.8-1.9-5.2-5.9-4.1l-10.9,2.9V277.8z M451.8,315.4v-62.3   l28.9-7.7c10.9-2.9,16.9,2.7,16.9,13.7c0,7.5-3.3,13.9-8.7,17.4v0.7l1.8-0.5c4.6-1.2,6.9,1.1,6.9,6.9v19.7l-14.3,3.8v-21.3   l-17.5,4.7v21.3L451.8,315.4z"></path>
</g>
</svg>